<svg width="361" height="150" viewBox="0 0 361 150" fill="none" xmlns="http://www.w3.org/2000/svg">
<path d="M160 41.5H0M0.5 41L0.500005 150" stroke="black"/>
<rect x="140.5" y="0.5" width="220" height="80" rx="9.5" fill="white"/>
<path d="M165.626 20.96H167.621V28.7215C167.621 29.7538 167.415 30.6468 167.004 31.4005C166.598 32.1478 166.031 32.7242 165.303 33.1295C164.575 33.5285 163.726 33.728 162.757 33.728C161.794 33.728 160.946 33.5285 160.211 33.1295C159.476 32.7242 158.903 32.1478 158.492 31.4005C158.08 30.6468 157.874 29.7538 157.874 28.7215V20.96H159.869V28.617C159.869 29.301 159.993 29.8868 160.24 30.3745C160.493 30.8622 160.835 31.2358 161.266 31.4955C161.703 31.7552 162.2 31.885 162.757 31.885C163.314 31.885 163.808 31.7552 164.239 31.4955C164.67 31.2358 165.009 30.8622 165.256 30.3745C165.503 29.8868 165.626 29.301 165.626 28.617V20.96ZM174.517 25.4725C175.043 25.4725 175.553 25.5802 176.047 25.7955C176.541 26.0108 176.946 26.356 177.263 26.831C177.586 27.2997 177.747 27.9108 177.747 28.6645V33.5H175.705V29.035C175.705 28.332 175.537 27.8158 175.201 27.4865C174.872 27.1508 174.444 26.983 173.919 26.983C173.57 26.983 173.238 27.0812 172.921 27.2775C172.604 27.4738 172.345 27.7398 172.142 28.0755C171.946 28.4112 171.848 28.7975 171.848 29.2345V33.5H169.815V25.7005H171.848V27.0115C171.905 26.7962 172.057 26.5713 172.304 26.337C172.557 26.0963 172.877 25.8937 173.263 25.729C173.649 25.558 174.067 25.4725 174.517 25.4725ZM181.176 30.08C181.189 30.4917 181.287 30.8622 181.47 31.1915C181.654 31.5208 181.923 31.7805 182.278 31.9705C182.639 32.1542 183.079 32.246 183.598 32.246C184.048 32.246 184.434 32.1858 184.757 32.0655C185.087 31.9388 185.359 31.79 185.574 31.619C185.79 31.4417 185.948 31.277 186.049 31.125L186.952 32.3505C186.756 32.6165 186.509 32.854 186.211 33.063C185.913 33.272 185.543 33.4335 185.099 33.5475C184.662 33.6678 184.121 33.728 183.475 33.728C182.626 33.728 181.888 33.5538 181.261 33.2055C180.634 32.8572 180.147 32.3663 179.798 31.733C179.456 31.0997 179.285 30.3587 179.285 29.51C179.285 28.75 179.444 28.066 179.76 27.458C180.077 26.8437 180.536 26.3592 181.138 26.0045C181.746 25.6498 182.474 25.4725 183.323 25.4725C184.115 25.4725 184.802 25.6308 185.384 25.9475C185.967 26.2642 186.417 26.7202 186.733 27.3155C187.056 27.9045 187.218 28.617 187.218 29.453C187.218 29.5037 187.215 29.6082 187.208 29.7665C187.208 29.9248 187.202 30.0293 187.189 30.08H181.176ZM185.318 28.598C185.312 28.3953 185.242 28.1642 185.109 27.9045C184.982 27.6448 184.776 27.42 184.491 27.23C184.206 27.0337 183.826 26.9355 183.351 26.9355C182.864 26.9355 182.468 27.0305 182.164 27.2205C181.86 27.4042 181.635 27.6258 181.489 27.8855C181.344 28.1388 181.258 28.3763 181.233 28.598H185.318ZM203.545 25.4725C204.128 25.4725 204.628 25.596 205.046 25.843C205.47 26.09 205.797 26.47 206.025 26.983C206.259 27.496 206.376 28.1515 206.376 28.9495V33.5H204.372V29.3105C204.372 28.5568 204.264 27.9837 204.049 27.591C203.84 27.1983 203.444 27.002 202.861 27.002C202.544 27.002 202.247 27.0875 201.968 27.2585C201.689 27.4295 201.465 27.686 201.294 28.028C201.129 28.3637 201.047 28.7912 201.047 29.3105V33.5H199.166V29.3105C199.166 28.5568 199.036 27.9837 198.776 27.591C198.523 27.1983 198.143 27.002 197.636 27.002C197.313 27.002 197.015 27.0843 196.743 27.249C196.471 27.4137 196.252 27.667 196.088 28.009C195.923 28.351 195.841 28.7848 195.841 29.3105V33.5H193.827V25.7005H195.841V26.869C195.91 26.6727 196.065 26.4668 196.306 26.2515C196.553 26.0362 196.86 25.8525 197.228 25.7005C197.595 25.5485 197.997 25.4725 198.434 25.4725C198.909 25.4725 199.302 25.5612 199.612 25.7385C199.929 25.9095 200.179 26.1248 200.363 26.3845C200.553 26.6442 200.692 26.9038 200.781 27.1635C200.869 26.9038 201.04 26.6442 201.294 26.3845C201.553 26.1248 201.876 25.9095 202.263 25.7385C202.649 25.5612 203.076 25.4725 203.545 25.4725ZM208.635 33.5V25.7005H210.659V33.5H208.635ZM209.671 23.3635C209.329 23.3635 209.034 23.24 208.787 22.993C208.547 22.746 208.426 22.4515 208.426 22.1095C208.426 21.7675 208.547 21.473 208.787 21.226C209.034 20.9727 209.329 20.846 209.671 20.846C209.899 20.846 210.108 20.9062 210.298 21.0265C210.494 21.1405 210.649 21.2925 210.763 21.4825C210.884 21.6662 210.944 21.8752 210.944 22.1095C210.944 22.4515 210.82 22.746 210.573 22.993C210.326 23.24 210.026 23.3635 209.671 23.3635ZM216.126 25.4725C216.563 25.4725 216.969 25.5137 217.342 25.596C217.716 25.6783 218.036 25.7765 218.302 25.8905C218.568 26.0045 218.752 26.0995 218.853 26.1755L218.112 27.4295C217.985 27.3218 217.757 27.1983 217.428 27.059C217.105 26.9197 216.741 26.85 216.335 26.85C215.93 26.85 215.588 26.9228 215.309 27.0685C215.031 27.2142 214.891 27.4327 214.891 27.724C214.891 28.009 215.037 28.237 215.328 28.408C215.626 28.579 216.028 28.7215 216.535 28.8355C216.953 28.9305 217.352 29.0635 217.732 29.2345C218.112 29.3992 218.422 29.6367 218.663 29.947C218.91 30.251 219.033 30.6595 219.033 31.1725C219.033 31.6602 218.929 32.0687 218.72 32.398C218.517 32.721 218.245 32.9807 217.903 33.177C217.561 33.3733 217.181 33.5127 216.763 33.595C216.351 33.6837 215.936 33.728 215.518 33.728C215.005 33.728 214.546 33.6773 214.141 33.576C213.742 33.4747 213.409 33.3575 213.143 33.2245C212.877 33.0852 212.687 32.968 212.573 32.873L213.314 31.467C213.479 31.6253 213.748 31.7932 214.122 31.9705C214.496 32.1415 214.914 32.227 215.376 32.227C215.87 32.227 216.266 32.132 216.563 31.942C216.861 31.752 217.01 31.4987 217.01 31.182C217.01 30.9477 216.937 30.7577 216.791 30.612C216.652 30.4663 216.459 30.3492 216.212 30.2605C215.965 30.1718 215.689 30.0927 215.385 30.023C215.1 29.9533 214.812 29.8647 214.521 29.757C214.236 29.643 213.973 29.4973 213.732 29.32C213.492 29.1363 213.299 28.9083 213.153 28.636C213.007 28.3637 212.934 28.0438 212.934 27.6765C212.934 27.2078 213.083 26.8088 213.381 26.4795C213.679 26.1502 214.071 25.9 214.559 25.729C215.047 25.558 215.569 25.4725 216.126 25.4725ZM223.938 25.4725C224.375 25.4725 224.78 25.5137 225.154 25.596C225.528 25.6783 225.847 25.7765 226.113 25.8905C226.379 26.0045 226.563 26.0995 226.664 26.1755L225.923 27.4295C225.797 27.3218 225.569 27.1983 225.239 27.059C224.916 26.9197 224.552 26.85 224.147 26.85C223.742 26.85 223.4 26.9228 223.121 27.0685C222.842 27.2142 222.703 27.4327 222.703 27.724C222.703 28.009 222.849 28.237 223.14 28.408C223.438 28.579 223.84 28.7215 224.346 28.8355C224.764 28.9305 225.163 29.0635 225.543 29.2345C225.923 29.3992 226.234 29.6367 226.474 29.947C226.721 30.251 226.845 30.6595 226.845 31.1725C226.845 31.6602 226.74 32.0687 226.531 32.398C226.329 32.721 226.056 32.9807 225.714 33.177C225.372 33.3733 224.992 33.5127 224.574 33.595C224.163 33.6837 223.748 33.728 223.33 33.728C222.817 33.728 222.358 33.6773 221.952 33.576C221.553 33.4747 221.221 33.3575 220.955 33.2245C220.689 33.0852 220.499 32.968 220.385 32.873L221.126 31.467C221.291 31.6253 221.56 31.7932 221.933 31.9705C222.307 32.1415 222.725 32.227 223.187 32.227C223.681 32.227 224.077 32.132 224.375 31.942C224.673 31.752 224.821 31.4987 224.821 31.182C224.821 30.9477 224.749 30.7577 224.603 30.612C224.464 30.4663 224.27 30.3492 224.023 30.2605C223.776 30.1718 223.501 30.0927 223.197 30.023C222.912 29.9533 222.624 29.8647 222.332 29.757C222.047 29.643 221.785 29.4973 221.544 29.32C221.303 29.1363 221.11 28.9083 220.964 28.636C220.819 28.3637 220.746 28.0438 220.746 27.6765C220.746 27.2078 220.895 26.8088 221.192 26.4795C221.49 26.1502 221.883 25.9 222.37 25.729C222.858 25.558 223.381 25.4725 223.938 25.4725ZM228.804 33.5V25.7005H230.828V33.5H228.804ZM229.84 23.3635C229.498 23.3635 229.203 23.24 228.956 22.993C228.716 22.746 228.595 22.4515 228.595 22.1095C228.595 21.7675 228.716 21.473 228.956 21.226C229.203 20.9727 229.498 20.846 229.84 20.846C230.068 20.846 230.277 20.9062 230.467 21.0265C230.663 21.1405 230.818 21.2925 230.932 21.4825C231.053 21.6662 231.113 21.8752 231.113 22.1095C231.113 22.4515 230.989 22.746 230.742 22.993C230.495 23.24 230.195 23.3635 229.84 23.3635ZM236.913 33.728C236.096 33.728 235.367 33.5507 234.728 33.196C234.094 32.835 233.597 32.3473 233.236 31.733C232.875 31.1123 232.695 30.4093 232.695 29.624C232.695 28.8387 232.875 28.1325 233.236 27.5055C233.597 26.8785 234.094 26.3845 234.728 26.0235C235.367 25.6562 236.096 25.4725 236.913 25.4725C237.73 25.4725 238.452 25.6562 239.079 26.0235C239.706 26.3845 240.197 26.8785 240.551 27.5055C240.912 28.1325 241.093 28.8387 241.093 29.624C241.093 30.4093 240.912 31.1123 240.551 31.733C240.197 32.3473 239.706 32.835 239.079 33.196C238.452 33.5507 237.73 33.728 236.913 33.728ZM236.913 32.018C237.369 32.018 237.765 31.9135 238.1 31.7045C238.436 31.4955 238.696 31.2105 238.879 30.8495C239.063 30.4885 239.155 30.0768 239.155 29.6145C239.155 29.1522 239.063 28.7405 238.879 28.3795C238.696 28.0122 238.436 27.7208 238.1 27.5055C237.765 27.2902 237.369 27.1825 236.913 27.1825C236.457 27.1825 236.058 27.2902 235.716 27.5055C235.38 27.7208 235.117 28.0122 234.927 28.3795C234.744 28.7405 234.652 29.1522 234.652 29.6145C234.652 30.0768 234.744 30.4885 234.927 30.8495C235.117 31.2105 235.38 31.4955 235.716 31.7045C236.058 31.9135 236.457 32.018 236.913 32.018ZM247.474 25.4725C248 25.4725 248.51 25.5802 249.004 25.7955C249.498 26.0108 249.903 26.356 250.22 26.831C250.543 27.2997 250.704 27.9108 250.704 28.6645V33.5H248.662V29.035C248.662 28.332 248.494 27.8158 248.158 27.4865C247.829 27.1508 247.401 26.983 246.876 26.983C246.527 26.983 246.195 27.0812 245.878 27.2775C245.561 27.4738 245.302 27.7398 245.099 28.0755C244.903 28.4112 244.805 28.7975 244.805 29.2345V33.5H242.772V25.7005H244.805V27.0115C244.862 26.7962 245.014 26.5713 245.261 26.337C245.514 26.0963 245.834 25.8937 246.22 25.729C246.606 25.558 247.024 25.4725 247.474 25.4725ZM263.755 33.5V32.056C263.704 32.208 263.558 32.417 263.318 32.683C263.083 32.949 262.76 33.1897 262.349 33.405C261.943 33.6203 261.462 33.728 260.905 33.728C260.176 33.728 259.521 33.5538 258.938 33.2055C258.355 32.8572 257.896 32.3727 257.561 31.752C257.225 31.1313 257.057 30.4157 257.057 29.605C257.057 28.7943 257.225 28.0787 257.561 27.458C257.896 26.8373 258.355 26.3528 258.938 26.0045C259.521 25.6498 260.176 25.4725 260.905 25.4725C261.449 25.4725 261.921 25.5675 262.32 25.7575C262.719 25.9475 263.039 26.166 263.28 26.413C263.527 26.66 263.679 26.8753 263.736 27.059V25.7005H265.75V33.5H263.755ZM259.062 29.605C259.062 30.1053 259.172 30.5423 259.394 30.916C259.616 31.2897 259.904 31.5778 260.259 31.7805C260.62 31.9832 261.006 32.0845 261.418 32.0845C261.861 32.0845 262.254 31.98 262.596 31.771C262.944 31.562 263.216 31.2738 263.413 30.9065C263.615 30.5328 263.717 30.099 263.717 29.605C263.717 29.111 263.615 28.6803 263.413 28.313C263.216 27.9393 262.944 27.648 262.596 27.439C262.254 27.2237 261.861 27.116 261.418 27.116C261.006 27.116 260.62 27.2205 260.259 27.4295C259.904 27.6322 259.616 27.9203 259.394 28.294C259.172 28.6677 259.062 29.1047 259.062 29.605ZM267.175 25.7005H268.638V22.499H270.652V25.7005H272.58V27.4105H270.652V30.745C270.652 31.163 270.722 31.4765 270.861 31.6855C271.007 31.8945 271.212 31.999 271.478 31.999C271.7 31.999 271.874 31.9578 272.001 31.8755C272.134 31.7932 272.213 31.7362 272.238 31.7045L272.989 33.177C272.951 33.215 272.84 33.2783 272.656 33.367C272.473 33.4557 272.235 33.538 271.944 33.614C271.653 33.69 271.32 33.728 270.946 33.728C270.288 33.728 269.737 33.5317 269.293 33.139C268.856 32.7463 268.638 32.132 268.638 31.296V27.4105H267.175V25.7005ZM273.558 25.7005H275.021V22.499H277.035V25.7005H278.963V27.4105H277.035V30.745C277.035 31.163 277.104 31.4765 277.244 31.6855C277.389 31.8945 277.595 31.999 277.861 31.999C278.083 31.999 278.257 31.9578 278.384 31.8755C278.517 31.7932 278.596 31.7362 278.621 31.7045L279.372 33.177C279.334 33.215 279.223 33.2783 279.039 33.367C278.856 33.4557 278.618 33.538 278.327 33.614C278.035 33.69 277.703 33.728 277.329 33.728C276.671 33.728 276.12 33.5317 275.676 33.139C275.239 32.7463 275.021 32.132 275.021 31.296V27.4105H273.558V25.7005ZM282.095 30.08C282.107 30.4917 282.206 30.8622 282.389 31.1915C282.573 31.5208 282.842 31.7805 283.197 31.9705C283.558 32.1542 283.998 32.246 284.517 32.246C284.967 32.246 285.353 32.1858 285.676 32.0655C286.006 31.9388 286.278 31.79 286.493 31.619C286.709 31.4417 286.867 31.277 286.968 31.125L287.871 32.3505C287.674 32.6165 287.427 32.854 287.13 33.063C286.832 33.272 286.462 33.4335 286.018 33.5475C285.581 33.6678 285.04 33.728 284.394 33.728C283.545 33.728 282.807 33.5538 282.18 33.2055C281.553 32.8572 281.066 32.3663 280.717 31.733C280.375 31.0997 280.204 30.3587 280.204 29.51C280.204 28.75 280.363 28.066 280.679 27.458C280.996 26.8437 281.455 26.3592 282.057 26.0045C282.665 25.6498 283.393 25.4725 284.242 25.4725C285.033 25.4725 285.721 25.6308 286.303 25.9475C286.886 26.2642 287.336 26.7202 287.652 27.3155C287.975 27.9045 288.137 28.617 288.137 29.453C288.137 29.5037 288.134 29.6082 288.127 29.7665C288.127 29.9248 288.121 30.0293 288.108 30.08H282.095ZM286.237 28.598C286.23 28.3953 286.161 28.1642 286.028 27.9045C285.901 27.6448 285.695 27.42 285.41 27.23C285.125 27.0337 284.745 26.9355 284.27 26.9355C283.783 26.9355 283.387 27.0305 283.083 27.2205C282.779 27.4042 282.554 27.6258 282.408 27.8855C282.263 28.1388 282.177 28.3763 282.152 28.598H286.237ZM294.529 25.4725C295.054 25.4725 295.564 25.5802 296.058 25.7955C296.552 26.0108 296.958 26.356 297.274 26.831C297.597 27.2997 297.759 27.9108 297.759 28.6645V33.5H295.716V29.035C295.716 28.332 295.548 27.8158 295.213 27.4865C294.883 27.1508 294.456 26.983 293.93 26.983C293.582 26.983 293.249 27.0812 292.933 27.2775C292.616 27.4738 292.356 27.7398 292.154 28.0755C291.957 28.4112 291.859 28.7975 291.859 29.2345V33.5H289.826V25.7005H291.859V27.0115C291.916 26.7962 292.068 26.5713 292.315 26.337C292.569 26.0963 292.888 25.8937 293.275 25.729C293.661 25.558 294.079 25.4725 294.529 25.4725ZM303.202 33.728C302.467 33.728 301.818 33.5538 301.254 33.2055C300.69 32.8572 300.247 32.3727 299.924 31.752C299.607 31.1313 299.449 30.4157 299.449 29.605C299.449 28.7943 299.607 28.0787 299.924 27.458C300.247 26.8373 300.69 26.3528 301.254 26.0045C301.818 25.6498 302.467 25.4725 303.202 25.4725C303.746 25.4725 304.231 25.5675 304.655 25.7575C305.079 25.9412 305.418 26.1565 305.672 26.4035C305.925 26.6505 306.074 26.869 306.118 27.059V20.428H308.151V33.5H306.147V32.056C306.058 32.2777 305.877 32.5183 305.605 32.778C305.333 33.0377 304.988 33.2625 304.57 33.4525C304.158 33.6362 303.702 33.728 303.202 33.728ZM303.724 32.0845C304.167 32.0845 304.57 31.98 304.931 31.771C305.292 31.562 305.58 31.2738 305.795 30.9065C306.01 30.5328 306.118 30.099 306.118 29.605C306.118 29.111 306.01 28.6803 305.795 28.313C305.58 27.9393 305.292 27.648 304.931 27.439C304.57 27.2237 304.167 27.116 303.724 27.116C303.319 27.116 302.942 27.2205 302.594 27.4295C302.252 27.6322 301.976 27.9203 301.767 28.294C301.558 28.6677 301.454 29.1047 301.454 29.605C301.454 30.1053 301.558 30.5423 301.767 30.916C301.976 31.2897 302.252 31.5778 302.594 31.7805C302.942 31.9832 303.319 32.0845 303.724 32.0845ZM313.038 25.4725C313.475 25.4725 313.88 25.5137 314.254 25.596C314.627 25.6783 314.947 25.7765 315.213 25.8905C315.479 26.0045 315.663 26.0995 315.764 26.1755L315.023 27.4295C314.896 27.3218 314.668 27.1983 314.339 27.059C314.016 26.9197 313.652 26.85 313.247 26.85C312.841 26.85 312.499 26.9228 312.221 27.0685C311.942 27.2142 311.803 27.4327 311.803 27.724C311.803 28.009 311.948 28.237 312.24 28.408C312.537 28.579 312.939 28.7215 313.446 28.8355C313.864 28.9305 314.263 29.0635 314.643 29.2345C315.023 29.3992 315.333 29.6367 315.574 29.947C315.821 30.251 315.945 30.6595 315.945 31.1725C315.945 31.6602 315.84 32.0687 315.631 32.398C315.428 32.721 315.156 32.9807 314.814 33.177C314.472 33.3733 314.092 33.5127 313.674 33.595C313.262 33.6837 312.848 33.728 312.43 33.728C311.917 33.728 311.457 33.6773 311.052 33.576C310.653 33.4747 310.321 33.3575 310.055 33.2245C309.789 33.0852 309.599 32.968 309.485 32.873L310.226 31.467C310.39 31.6253 310.659 31.7932 311.033 31.9705C311.407 32.1415 311.825 32.227 312.287 32.227C312.781 32.227 313.177 32.132 313.475 31.942C313.772 31.752 313.921 31.4987 313.921 31.182C313.921 30.9477 313.848 30.7577 313.703 30.612C313.563 30.4663 313.37 30.3492 313.123 30.2605C312.876 30.1718 312.601 30.0927 312.297 30.023C312.012 29.9533 311.723 29.8647 311.432 29.757C311.147 29.643 310.884 29.4973 310.644 29.32C310.403 29.1363 310.21 28.9083 310.064 28.636C309.918 28.3637 309.846 28.0438 309.846 27.6765C309.846 27.2078 309.994 26.8088 310.292 26.4795C310.59 26.1502 310.982 25.9 311.47 25.729C311.958 25.558 312.48 25.4725 313.038 25.4725ZM157.181 48.7005H159.356L161.703 54.638L164.049 48.7005H166.215L162.9 56.5H160.515L157.181 48.7005ZM171.378 56.728C170.561 56.728 169.832 56.5507 169.193 56.196C168.559 55.835 168.062 55.3473 167.701 54.733C167.34 54.1123 167.16 53.4093 167.16 52.624C167.16 51.8387 167.34 51.1325 167.701 50.5055C168.062 49.8785 168.559 49.3845 169.193 49.0235C169.832 48.6562 170.561 48.4725 171.378 48.4725C172.195 48.4725 172.917 48.6562 173.544 49.0235C174.171 49.3845 174.661 49.8785 175.016 50.5055C175.377 51.1325 175.558 51.8387 175.558 52.624C175.558 53.4093 175.377 54.1123 175.016 54.733C174.661 55.3473 174.171 55.835 173.544 56.196C172.917 56.5507 172.195 56.728 171.378 56.728ZM171.378 55.018C171.834 55.018 172.229 54.9135 172.565 54.7045C172.901 54.4955 173.16 54.2105 173.344 53.8495C173.528 53.4885 173.62 53.0768 173.62 52.6145C173.62 52.1522 173.528 51.7405 173.344 51.3795C173.16 51.0122 172.901 50.7208 172.565 50.5055C172.229 50.2902 171.834 50.1825 171.378 50.1825C170.922 50.1825 170.523 50.2902 170.181 50.5055C169.845 50.7208 169.582 51.0122 169.392 51.3795C169.208 51.7405 169.117 52.1522 169.117 52.6145C169.117 53.0768 169.208 53.4885 169.392 53.8495C169.582 54.2105 169.845 54.4955 170.181 54.7045C170.523 54.9135 170.922 55.018 171.378 55.018ZM176.609 48.7005H178.072V45.499H180.086V48.7005H182.015V50.4105H180.086V53.745C180.086 54.163 180.156 54.4765 180.295 54.6855C180.441 54.8945 180.647 54.999 180.913 54.999C181.135 54.999 181.309 54.9578 181.435 54.8755C181.568 54.7932 181.648 54.7362 181.673 54.7045L182.423 56.177C182.385 56.215 182.275 56.2783 182.091 56.367C181.907 56.4557 181.67 56.538 181.378 56.614C181.087 56.69 180.755 56.728 180.381 56.728C179.722 56.728 179.171 56.5317 178.728 56.139C178.291 55.7463 178.072 55.132 178.072 54.296V50.4105H176.609V48.7005ZM185.679 56.5H183.655V48.7005H185.679V50.002H185.631C185.675 49.8437 185.796 49.6473 185.992 49.413C186.195 49.1723 186.473 48.957 186.828 48.767C187.183 48.5707 187.61 48.4725 188.111 48.4725C188.472 48.4725 188.795 48.5232 189.08 48.6245C189.365 48.7258 189.567 48.8272 189.688 48.9285L188.871 50.6005C188.788 50.4992 188.633 50.401 188.405 50.306C188.183 50.2047 187.908 50.154 187.579 50.154C187.167 50.154 186.819 50.2743 186.534 50.515C186.255 50.7557 186.043 51.0438 185.897 51.3795C185.751 51.7152 185.679 52.0287 185.679 52.32V56.5ZM191.882 53.08C191.895 53.4917 191.993 53.8622 192.176 54.1915C192.36 54.5208 192.629 54.7805 192.984 54.9705C193.345 55.1542 193.785 55.246 194.304 55.246C194.754 55.246 195.14 55.1858 195.463 55.0655C195.793 54.9388 196.065 54.79 196.28 54.619C196.496 54.4417 196.654 54.277 196.755 54.125L197.658 55.3505C197.462 55.6165 197.215 55.854 196.917 56.063C196.619 56.272 196.249 56.4335 195.805 56.5475C195.368 56.6678 194.827 56.728 194.181 56.728C193.332 56.728 192.594 56.5538 191.967 56.2055C191.34 55.8572 190.853 55.3663 190.504 54.733C190.162 54.0997 189.991 53.3587 189.991 52.51C189.991 51.75 190.15 51.066 190.466 50.458C190.783 49.8437 191.242 49.3592 191.844 49.0045C192.452 48.6498 193.18 48.4725 194.029 48.4725C194.821 48.4725 195.508 48.6308 196.09 48.9475C196.673 49.2642 197.123 49.7202 197.439 50.3155C197.762 50.9045 197.924 51.617 197.924 52.453C197.924 52.5037 197.921 52.6082 197.914 52.7665C197.914 52.9248 197.908 53.0293 197.895 53.08H191.882ZM196.024 51.598C196.018 51.3953 195.948 51.1642 195.815 50.9045C195.688 50.6448 195.482 50.42 195.197 50.23C194.912 50.0337 194.532 49.9355 194.057 49.9355C193.57 49.9355 193.174 50.0305 192.87 50.2205C192.566 50.4042 192.341 50.6258 192.195 50.8855C192.05 51.1388 191.964 51.3763 191.939 51.598H196.024ZM206.404 56.5H204.381V48.7005H206.404V50.002H206.357C206.401 49.8437 206.521 49.6473 206.718 49.413C206.92 49.1723 207.199 48.957 207.554 48.767C207.908 48.5707 208.336 48.4725 208.836 48.4725C209.197 48.4725 209.52 48.5232 209.805 48.6245C210.09 48.7258 210.293 48.8272 210.413 48.9285L209.596 50.6005C209.514 50.4992 209.359 50.401 209.131 50.306C208.909 50.2047 208.633 50.154 208.304 50.154C207.892 50.154 207.544 50.2743 207.259 50.515C206.98 50.7557 206.768 51.0438 206.623 51.3795C206.477 51.7152 206.404 52.0287 206.404 52.32V56.5ZM212.608 53.08C212.62 53.4917 212.718 53.8622 212.902 54.1915C213.086 54.5208 213.355 54.7805 213.71 54.9705C214.071 55.1542 214.511 55.246 215.03 55.246C215.48 55.246 215.866 55.1858 216.189 55.0655C216.518 54.9388 216.791 54.79 217.006 54.619C217.221 54.4417 217.38 54.277 217.481 54.125L218.384 55.3505C218.187 55.6165 217.94 55.854 217.643 56.063C217.345 56.272 216.974 56.4335 216.531 56.5475C216.094 56.6678 215.553 56.728 214.907 56.728C214.058 56.728 213.32 56.5538 212.693 56.2055C212.066 55.8572 211.578 55.3663 211.23 54.733C210.888 54.0997 210.717 53.3587 210.717 52.51C210.717 51.75 210.875 51.066 211.192 50.458C211.509 49.8437 211.968 49.3592 212.57 49.0045C213.178 48.6498 213.906 48.4725 214.755 48.4725C215.546 48.4725 216.233 48.6308 216.816 48.9475C217.399 49.2642 217.848 49.7202 218.165 50.3155C218.488 50.9045 218.65 51.617 218.65 52.453C218.65 52.5037 218.646 52.6082 218.64 52.7665C218.64 52.9248 218.634 53.0293 218.621 53.08H212.608ZM216.75 51.598C216.743 51.3953 216.674 51.1642 216.541 50.9045C216.414 50.6448 216.208 50.42 215.923 50.23C215.638 50.0337 215.258 49.9355 214.783 49.9355C214.295 49.9355 213.9 50.0305 213.596 50.2205C213.292 50.4042 213.067 50.6258 212.921 50.8855C212.775 51.1388 212.69 51.3763 212.665 51.598H216.75ZM213.605 47.6935L212.94 46.791L215.885 44.321L216.968 45.67L213.605 47.6935ZM222.438 60.452H220.424V48.7005H222.466V50.059C222.536 49.869 222.697 49.6505 222.951 49.4035C223.21 49.1565 223.552 48.9412 223.977 48.7575C224.401 48.5675 224.885 48.4725 225.43 48.4725C226.165 48.4725 226.808 48.6498 227.359 49.0045C227.916 49.3528 228.35 49.8373 228.66 50.458C228.977 51.0787 229.135 51.7943 229.135 52.605C229.135 53.4157 228.974 54.1313 228.651 54.752C228.328 55.3727 227.881 55.8572 227.311 56.2055C226.747 56.5538 226.098 56.728 225.364 56.728C224.787 56.728 224.287 56.6235 223.863 56.4145C223.438 56.1992 223.106 55.9585 222.865 55.6925C222.624 55.4265 222.482 55.2143 222.438 55.056V60.452ZM227.131 52.605C227.131 52.1047 227.026 51.6677 226.817 51.294C226.608 50.9203 226.329 50.6322 225.981 50.4295C225.639 50.2205 225.262 50.116 224.851 50.116C224.407 50.116 224.005 50.2237 223.644 50.439C223.283 50.648 222.995 50.9393 222.78 51.313C222.571 51.6803 222.466 52.111 222.466 52.605C222.466 53.099 222.571 53.5328 222.78 53.9065C222.995 54.2738 223.283 54.562 223.644 54.771C224.005 54.98 224.407 55.0845 224.851 55.0845C225.262 55.0845 225.639 54.9832 225.981 54.7805C226.329 54.5778 226.608 54.2897 226.817 53.916C227.026 53.5423 227.131 53.1053 227.131 52.605ZM234.501 56.728C233.684 56.728 232.955 56.5507 232.316 56.196C231.682 55.835 231.185 55.3473 230.824 54.733C230.463 54.1123 230.283 53.4093 230.283 52.624C230.283 51.8387 230.463 51.1325 230.824 50.5055C231.185 49.8785 231.682 49.3845 232.316 49.0235C232.955 48.6562 233.684 48.4725 234.501 48.4725C235.318 48.4725 236.04 48.6562 236.667 49.0235C237.294 49.3845 237.785 49.8785 238.139 50.5055C238.5 51.1325 238.681 51.8387 238.681 52.624C238.681 53.4093 238.5 54.1123 238.139 54.733C237.785 55.3473 237.294 55.835 236.667 56.196C236.04 56.5507 235.318 56.728 234.501 56.728ZM234.501 55.018C234.957 55.018 235.353 54.9135 235.688 54.7045C236.024 54.4955 236.284 54.2105 236.467 53.8495C236.651 53.4885 236.743 53.0768 236.743 52.6145C236.743 52.1522 236.651 51.7405 236.467 51.3795C236.284 51.0122 236.024 50.7208 235.688 50.5055C235.353 50.2902 234.957 50.1825 234.501 50.1825C234.045 50.1825 233.646 50.2902 233.304 50.5055C232.968 50.7208 232.705 51.0122 232.515 51.3795C232.332 51.7405 232.24 52.1522 232.24 52.6145C232.24 53.0768 232.332 53.4885 232.515 53.8495C232.705 54.2105 232.968 54.4955 233.304 54.7045C233.646 54.9135 234.045 55.018 234.501 55.018ZM245.062 48.4725C245.588 48.4725 246.098 48.5802 246.592 48.7955C247.086 49.0108 247.491 49.356 247.808 49.831C248.131 50.2997 248.292 50.9108 248.292 51.6645V56.5H246.25V52.035C246.25 51.332 246.082 50.8158 245.746 50.4865C245.417 50.1508 244.989 49.983 244.464 49.983C244.115 49.983 243.783 50.0812 243.466 50.2775C243.149 50.4738 242.89 50.7398 242.687 51.0755C242.491 51.4112 242.393 51.7975 242.393 52.2345V56.5H240.36V48.7005H242.393V50.0115C242.45 49.7962 242.602 49.5713 242.849 49.337C243.102 49.0963 243.422 48.8937 243.808 48.729C244.194 48.558 244.612 48.4725 245.062 48.4725ZM253.421 48.4725C253.858 48.4725 254.264 48.5137 254.637 48.596C255.011 48.6783 255.331 48.7765 255.597 48.8905C255.863 49.0045 256.046 49.0995 256.148 49.1755L255.407 50.4295C255.28 50.3218 255.052 50.1983 254.723 50.059C254.4 49.9197 254.036 49.85 253.63 49.85C253.225 49.85 252.883 49.9228 252.604 50.0685C252.326 50.2142 252.186 50.4327 252.186 50.724C252.186 51.009 252.332 51.237 252.623 51.408C252.921 51.579 253.323 51.7215 253.83 51.8355C254.248 51.9305 254.647 52.0635 255.027 52.2345C255.407 52.3992 255.717 52.6367 255.958 52.947C256.205 53.251 256.328 53.6595 256.328 54.1725C256.328 54.6602 256.224 55.0687 256.015 55.398C255.812 55.721 255.54 55.9807 255.198 56.177C254.856 56.3733 254.476 56.5127 254.058 56.595C253.646 56.6837 253.231 56.728 252.813 56.728C252.3 56.728 251.841 56.6773 251.436 56.576C251.037 56.4747 250.704 56.3575 250.438 56.2245C250.172 56.0852 249.982 55.968 249.868 55.873L250.609 54.467C250.774 54.6253 251.043 54.7932 251.417 54.9705C251.79 55.1415 252.208 55.227 252.671 55.227C253.165 55.227 253.561 55.132 253.858 54.942C254.156 54.752 254.305 54.4987 254.305 54.182C254.305 53.9477 254.232 53.7577 254.086 53.612C253.947 53.4663 253.754 53.3492 253.507 53.2605C253.26 53.1718 252.984 53.0927 252.68 53.023C252.395 52.9533 252.107 52.8647 251.816 52.757C251.531 52.643 251.268 52.4973 251.027 52.32C250.787 52.1363 250.593 51.9083 250.448 51.636C250.302 51.3637 250.229 51.0438 250.229 50.6765C250.229 50.2078 250.378 49.8088 250.676 49.4795C250.973 49.1502 251.366 48.9 251.854 48.729C252.341 48.558 252.864 48.4725 253.421 48.4725ZM259.532 53.08C259.545 53.4917 259.643 53.8622 259.827 54.1915C260.01 54.5208 260.28 54.7805 260.634 54.9705C260.995 55.1542 261.435 55.246 261.955 55.246C262.404 55.246 262.791 55.1858 263.114 55.0655C263.443 54.9388 263.715 54.79 263.931 54.619C264.146 54.4417 264.304 54.277 264.406 54.125L265.308 55.3505C265.112 55.6165 264.865 55.854 264.567 56.063C264.27 56.272 263.899 56.4335 263.456 56.5475C263.019 56.6678 262.477 56.728 261.831 56.728C260.983 56.728 260.245 56.5538 259.618 56.2055C258.991 55.8572 258.503 55.3663 258.155 54.733C257.813 54.0997 257.642 53.3587 257.642 52.51C257.642 51.75 257.8 51.066 258.117 50.458C258.433 49.8437 258.893 49.3592 259.494 49.0045C260.102 48.6498 260.831 48.4725 261.679 48.4725C262.471 48.4725 263.158 48.6308 263.741 48.9475C264.323 49.2642 264.773 49.7202 265.09 50.3155C265.413 50.9045 265.574 51.617 265.574 52.453C265.574 52.5037 265.571 52.6082 265.565 52.7665C265.565 52.9248 265.558 53.0293 265.546 53.08H259.532ZM263.674 51.598C263.668 51.3953 263.598 51.1642 263.465 50.9045C263.339 50.6448 263.133 50.42 262.848 50.23C262.563 50.0337 262.183 49.9355 261.708 49.9355C261.22 49.9355 260.824 50.0305 260.52 50.2205C260.216 50.4042 259.991 50.6258 259.846 50.8855C259.7 51.1388 259.615 51.3763 259.589 51.598H263.674ZM273.266 52.833L272.839 43.428H275.081L274.644 52.833H273.266ZM273.941 56.728C273.687 56.728 273.453 56.6647 273.238 56.538C273.022 56.4113 272.851 56.2403 272.725 56.025C272.598 55.8097 272.535 55.5722 272.535 55.3125C272.535 54.9198 272.671 54.5842 272.943 54.3055C273.222 54.0268 273.554 53.8875 273.941 53.8875C274.34 53.8875 274.675 54.0268 274.948 54.3055C275.226 54.5842 275.366 54.9198 275.366 55.3125C275.366 55.7052 275.226 56.0408 274.948 56.3195C274.675 56.5918 274.34 56.728 273.941 56.728Z" fill="black"/>
<rect x="140.5" y="0.5" width="220" height="80" rx="9.5" stroke="black"/>
</svg>
