<svg width="61" height="55" viewBox="0 0 61 55" fill="none" xmlns="http://www.w3.org/2000/svg">
<mask id="path-1-inside-1_1_59" fill="white">
<path fill-rule="evenodd" clip-rule="evenodd" d="M32.157 50.0336C48.0865 50.0336 60.9999 39.0034 60.9999 25.397C60.9999 11.7906 48.0865 0.760376 32.157 0.760376C16.2275 0.760376 3.31415 11.7906 3.31415 25.397C3.31415 34.4999 9.09391 42.4497 17.6898 46.715L17.927 52.321C17.9962 53.955 19.8906 54.8197 21.1704 53.8015L26.5014 49.5602C28.3303 49.8708 30.2214 50.0336 32.157 50.0336Z"/>
</mask>
<path fill-rule="evenodd" clip-rule="evenodd" d="M32.157 50.0336C48.0865 50.0336 60.9999 39.0034 60.9999 25.397C60.9999 11.7906 48.0865 0.760376 32.157 0.760376C16.2275 0.760376 3.31415 11.7906 3.31415 25.397C3.31415 34.4999 9.09391 42.4497 17.6898 46.715L17.927 52.321C17.9962 53.955 19.8906 54.8197 21.1704 53.8015L26.5014 49.5602C28.3303 49.8708 30.2214 50.0336 32.157 50.0336Z" fill="black"/>
<path d="M17.6898 46.715L18.4391 46.6833L18.4204 46.2403L18.0232 46.0432L17.6898 46.715ZM17.927 52.321L18.6764 52.2893L18.6764 52.2893L17.927 52.321ZM21.1704 53.8015L21.6374 54.3884L21.6374 54.3884L21.1704 53.8015ZM26.5014 49.5602L26.627 48.8208L26.2967 48.7647L26.0345 48.9733L26.5014 49.5602ZM60.2499 25.397C60.2499 38.4827 47.7875 49.2836 32.157 49.2836V50.7836C48.3855 50.7836 61.7499 39.5242 61.7499 25.397H60.2499ZM32.157 1.51038C47.7875 1.51038 60.2499 12.3113 60.2499 25.397H61.7499C61.7499 11.2698 48.3855 0.010376 32.157 0.010376V1.51038ZM4.06415 25.397C4.06415 12.3113 16.5265 1.51038 32.157 1.51038V0.010376C15.9286 0.010376 2.56415 11.2698 2.56415 25.397H4.06415ZM18.0232 46.0432C9.62998 41.8784 4.06415 34.1607 4.06415 25.397H2.56415C2.56415 34.839 8.55783 43.0209 17.3564 47.3869L18.0232 46.0432ZM18.6764 52.2893L18.4391 46.6833L16.9405 46.7467L17.1777 52.3527L18.6764 52.2893ZM20.7035 53.2146C19.9036 53.851 18.7196 53.3105 18.6764 52.2893L17.1777 52.3527C17.2728 54.5994 19.8776 55.7885 21.6374 54.3884L20.7035 53.2146ZM26.0345 48.9733L20.7035 53.2146L21.6374 54.3884L26.9684 50.1471L26.0345 48.9733ZM32.157 49.2836C30.2635 49.2836 28.4143 49.1243 26.627 48.8208L26.3759 50.2996C28.2462 50.6172 30.1793 50.7836 32.157 50.7836V49.2836Z" fill="black" mask="url(#path-1-inside-1_1_59)"/>
<mask id="path-3-inside-2_1_59" fill="white">
<path fill-rule="evenodd" clip-rule="evenodd" d="M28.8429 50.0336C44.7724 50.0336 57.6858 39.0034 57.6858 25.397C57.6858 11.7906 44.7724 0.760376 28.8429 0.760376C12.9134 0.760376 0 11.7906 0 25.397C0 34.4999 5.77981 42.4498 14.3758 46.7151L14.613 52.321C14.6821 53.955 16.5766 54.8197 17.8564 53.8015L23.1874 49.5602C25.0162 49.8708 26.9073 50.0336 28.8429 50.0336Z"/>
</mask>
<path fill-rule="evenodd" clip-rule="evenodd" d="M28.8429 50.0336C44.7724 50.0336 57.6858 39.0034 57.6858 25.397C57.6858 11.7906 44.7724 0.760376 28.8429 0.760376C12.9134 0.760376 0 11.7906 0 25.397C0 34.4999 5.77981 42.4498 14.3758 46.7151L14.613 52.321C14.6821 53.955 16.5766 54.8197 17.8564 53.8015L23.1874 49.5602C25.0162 49.8708 26.9073 50.0336 28.8429 50.0336Z" fill="#FC5656"/>
<path d="M14.3758 46.7151L15.1251 46.6834L15.1064 46.2403L14.7091 46.0432L14.3758 46.7151ZM14.613 52.321L15.3623 52.2893L15.3623 52.2893L14.613 52.321ZM17.8564 53.8015L18.3233 54.3884L18.3233 54.3884L17.8564 53.8015ZM23.1874 49.5602L23.3129 48.8208L22.9826 48.7647L22.7204 48.9733L23.1874 49.5602ZM56.9358 25.397C56.9358 38.4827 44.4734 49.2836 28.8429 49.2836V50.7836C45.0713 50.7836 58.4358 39.5242 58.4358 25.397H56.9358ZM28.8429 1.51038C44.4734 1.51038 56.9358 12.3113 56.9358 25.397H58.4358C58.4358 11.2698 45.0713 0.010376 28.8429 0.010376V1.51038ZM0.75 25.397C0.75 12.3113 13.2124 1.51038 28.8429 1.51038V0.010376C12.6144 0.010376 -0.75 11.2698 -0.75 25.397H0.75ZM14.7091 46.0432C6.31588 41.8785 0.75 34.1608 0.75 25.397H-0.75C-0.75 34.8391 5.24374 43.021 14.0424 47.3869L14.7091 46.0432ZM15.3623 52.2893L15.1251 46.6834L13.6264 46.7468L13.8637 52.3527L15.3623 52.2893ZM17.3894 53.2146C16.5895 53.851 15.4055 53.3105 15.3623 52.2893L13.8637 52.3527C13.9587 54.5994 16.5636 55.7885 18.3233 54.3884L17.3894 53.2146ZM22.7204 48.9733L17.3894 53.2146L18.3233 54.3884L23.6543 50.1471L22.7204 48.9733ZM28.8429 49.2836C26.9493 49.2836 25.1003 49.1243 23.3129 48.8208L23.0618 50.2996C24.9321 50.6172 26.8652 50.7836 28.8429 50.7836V49.2836Z" fill="black" mask="url(#path-3-inside-2_1_59)"/>
</svg>
