<svg width="220" height="55" viewBox="0 0 220 55" fill="none" xmlns="http://www.w3.org/2000/svg">
<mask id="path-1-inside-1_1_66" fill="white">
<path fill-rule="evenodd" clip-rule="evenodd" d="M32.157 50.0336C48.0865 50.0336 60.9999 39.0034 60.9999 25.397C60.9999 11.7906 48.0865 0.760376 32.157 0.760376C16.2275 0.760376 3.31415 11.7906 3.31415 25.397C3.31415 34.4999 9.09391 42.4497 17.6898 46.715L17.927 52.321C17.9962 53.955 19.8906 54.8197 21.1704 53.8015L26.5014 49.5602C28.3303 49.8708 30.2214 50.0336 32.157 50.0336Z"/>
</mask>
<path fill-rule="evenodd" clip-rule="evenodd" d="M32.157 50.0336C48.0865 50.0336 60.9999 39.0034 60.9999 25.397C60.9999 11.7906 48.0865 0.760376 32.157 0.760376C16.2275 0.760376 3.31415 11.7906 3.31415 25.397C3.31415 34.4999 9.09391 42.4497 17.6898 46.715L17.927 52.321C17.9962 53.955 19.8906 54.8197 21.1704 53.8015L26.5014 49.5602C28.3303 49.8708 30.2214 50.0336 32.157 50.0336Z" fill="black"/>
<path d="M17.6898 46.715L18.4391 46.6833L18.4204 46.2403L18.0232 46.0432L17.6898 46.715ZM17.927 52.321L18.6764 52.2893L18.6764 52.2893L17.927 52.321ZM21.1704 53.8015L21.6374 54.3884L21.6374 54.3884L21.1704 53.8015ZM26.5014 49.5602L26.627 48.8208L26.2967 48.7647L26.0345 48.9733L26.5014 49.5602ZM60.2499 25.397C60.2499 38.4827 47.7875 49.2836 32.157 49.2836V50.7836C48.3855 50.7836 61.7499 39.5242 61.7499 25.397H60.2499ZM32.157 1.51038C47.7875 1.51038 60.2499 12.3113 60.2499 25.397H61.7499C61.7499 11.2698 48.3855 0.010376 32.157 0.010376V1.51038ZM4.06415 25.397C4.06415 12.3113 16.5265 1.51038 32.157 1.51038V0.010376C15.9286 0.010376 2.56415 11.2698 2.56415 25.397H4.06415ZM18.0232 46.0432C9.62998 41.8784 4.06415 34.1607 4.06415 25.397H2.56415C2.56415 34.839 8.55783 43.0209 17.3564 47.3869L18.0232 46.0432ZM18.6764 52.2893L18.4391 46.6833L16.9405 46.7467L17.1777 52.3527L18.6764 52.2893ZM20.7035 53.2146C19.9036 53.851 18.7196 53.3105 18.6764 52.2893L17.1777 52.3527C17.2728 54.5994 19.8776 55.7885 21.6374 54.3884L20.7035 53.2146ZM26.0345 48.9733L20.7035 53.2146L21.6374 54.3884L26.9684 50.1471L26.0345 48.9733ZM32.157 49.2836C30.2635 49.2836 28.4143 49.1243 26.627 48.8208L26.3759 50.2996C28.2462 50.6172 30.1793 50.7836 32.157 50.7836V49.2836Z" fill="black" mask="url(#path-1-inside-1_1_66)"/>
<mask id="path-3-inside-2_1_66" fill="white">
<path fill-rule="evenodd" clip-rule="evenodd" d="M28.8429 50.0336C44.7724 50.0336 57.6858 39.0034 57.6858 25.397C57.6858 11.7906 44.7724 0.760376 28.8429 0.760376C12.9134 0.760376 0 11.7906 0 25.397C0 34.4999 5.77981 42.4498 14.3758 46.7151L14.613 52.321C14.6821 53.955 16.5766 54.8197 17.8564 53.8015L23.1874 49.5602C25.0162 49.8708 26.9073 50.0336 28.8429 50.0336Z"/>
</mask>
<path fill-rule="evenodd" clip-rule="evenodd" d="M28.8429 50.0336C44.7724 50.0336 57.6858 39.0034 57.6858 25.397C57.6858 11.7906 44.7724 0.760376 28.8429 0.760376C12.9134 0.760376 0 11.7906 0 25.397C0 34.4999 5.77981 42.4498 14.3758 46.7151L14.613 52.321C14.6821 53.955 16.5766 54.8197 17.8564 53.8015L23.1874 49.5602C25.0162 49.8708 26.9073 50.0336 28.8429 50.0336Z" fill="#FC5656"/>
<path d="M14.3758 46.7151L15.1251 46.6834L15.1064 46.2403L14.7091 46.0432L14.3758 46.7151ZM14.613 52.321L15.3623 52.2893L15.3623 52.2893L14.613 52.321ZM17.8564 53.8015L18.3233 54.3884L18.3233 54.3884L17.8564 53.8015ZM23.1874 49.5602L23.3129 48.8208L22.9826 48.7647L22.7204 48.9733L23.1874 49.5602ZM56.9358 25.397C56.9358 38.4827 44.4734 49.2836 28.8429 49.2836V50.7836C45.0713 50.7836 58.4358 39.5242 58.4358 25.397H56.9358ZM28.8429 1.51038C44.4734 1.51038 56.9358 12.3113 56.9358 25.397H58.4358C58.4358 11.2698 45.0713 0.010376 28.8429 0.010376V1.51038ZM0.75 25.397C0.75 12.3113 13.2124 1.51038 28.8429 1.51038V0.010376C12.6144 0.010376 -0.75 11.2698 -0.75 25.397H0.75ZM14.7091 46.0432C6.31588 41.8785 0.75 34.1608 0.75 25.397H-0.75C-0.75 34.8391 5.24374 43.021 14.0424 47.3869L14.7091 46.0432ZM15.3623 52.2893L15.1251 46.6834L13.6264 46.7468L13.8637 52.3527L15.3623 52.2893ZM17.3894 53.2146C16.5895 53.851 15.4055 53.3105 15.3623 52.2893L13.8637 52.3527C13.9587 54.5994 16.5636 55.7885 18.3233 54.3884L17.3894 53.2146ZM22.7204 48.9733L17.3894 53.2146L18.3233 54.3884L23.6543 50.1471L22.7204 48.9733ZM28.8429 49.2836C26.9493 49.2836 25.1003 49.1243 23.3129 48.8208L23.0618 50.2996C24.9321 50.6172 26.8652 50.7836 28.8429 50.7836V49.2836Z" fill="black" mask="url(#path-3-inside-2_1_66)"/>
<path d="M82.2575 42H73.1375V17.37H82.2575V21.18H82.1075C82.2675 20.72 82.6575 20.14 83.2775 19.44C83.8975 18.72 84.7675 18.08 85.8875 17.52C87.0075 16.94 88.3775 16.65 89.9975 16.65C91.1375 16.65 92.1875 16.83 93.1475 17.19C94.1075 17.53 94.8075 17.86 95.2475 18.18L91.7075 25.59C91.4275 25.25 90.9275 24.9 90.2075 24.54C89.5075 24.16 88.6275 23.97 87.5675 23.97C86.3475 23.97 85.3375 24.28 84.5375 24.9C83.7575 25.52 83.1775 26.27 82.7975 27.15C82.4375 28.03 82.2575 28.86 82.2575 29.64V42ZM100.722 31.62C100.782 32.5 101.062 33.28 101.562 33.96C102.062 34.64 102.752 35.18 103.632 35.58C104.532 35.96 105.592 36.15 106.812 36.15C107.972 36.15 109.012 36.03 109.932 35.79C110.872 35.55 111.682 35.25 112.362 34.89C113.062 34.53 113.602 34.16 113.982 33.78L117.522 39.42C117.022 39.96 116.312 40.49 115.392 41.01C114.492 41.51 113.302 41.92 111.822 42.24C110.342 42.56 108.472 42.72 106.212 42.72C103.492 42.72 101.072 42.21 98.9521 41.19C96.8321 40.17 95.1621 38.67 93.9421 36.69C92.7221 34.71 92.1121 32.29 92.1121 29.43C92.1121 27.03 92.6321 24.87 93.6721 22.95C94.7321 21.01 96.2621 19.48 98.2621 18.36C100.262 17.22 102.672 16.65 105.492 16.65C108.172 16.65 110.492 17.14 112.452 18.12C114.432 19.1 115.952 20.56 117.012 22.5C118.092 24.42 118.632 26.82 118.632 29.7C118.632 29.86 118.622 30.18 118.602 30.66C118.602 31.14 118.582 31.46 118.542 31.62H100.722ZM110.052 26.85C110.032 26.21 109.862 25.58 109.542 24.96C109.222 24.32 108.742 23.8 108.102 23.4C107.462 22.98 106.642 22.77 105.642 22.77C104.642 22.77 103.792 22.97 103.092 23.37C102.412 23.75 101.892 24.25 101.532 24.87C101.172 25.49 100.972 26.15 100.932 26.85H110.052ZM128.715 54.48H119.685V17.37H128.805V20.97C129.085 20.41 129.615 19.8 130.395 19.14C131.195 18.46 132.205 17.88 133.425 17.4C134.665 16.9 136.065 16.65 137.625 16.65C140.025 16.65 142.075 17.24 143.775 18.42C145.495 19.6 146.815 21.18 147.735 23.16C148.655 25.12 149.115 27.3 149.115 29.7C149.115 32.1 148.625 34.29 147.645 36.27C146.665 38.23 145.285 39.8 143.505 40.98C141.745 42.14 139.665 42.72 137.265 42.72C135.545 42.72 134.075 42.42 132.855 41.82C131.655 41.2 130.705 40.52 130.005 39.78C129.325 39.02 128.895 38.43 128.715 38.01V54.48ZM140.205 29.7C140.205 28.58 139.955 27.58 139.455 26.7C138.955 25.8 138.275 25.1 137.415 24.6C136.575 24.08 135.625 23.82 134.565 23.82C133.465 23.82 132.475 24.08 131.595 24.6C130.735 25.1 130.055 25.8 129.555 26.7C129.055 27.58 128.805 28.58 128.805 29.7C128.805 30.82 129.055 31.83 129.555 32.73C130.055 33.61 130.735 34.3 131.595 34.8C132.475 35.3 133.465 35.55 134.565 35.55C135.625 35.55 136.575 35.3 137.415 34.8C138.275 34.3 138.955 33.61 139.455 32.73C139.955 31.83 140.205 30.82 140.205 29.7ZM159.249 42H150.099V0.719999H159.249V42ZM195.262 42V38.01C195.082 38.41 194.622 38.99 193.882 39.75C193.162 40.51 192.202 41.2 191.002 41.82C189.802 42.42 188.402 42.72 186.802 42.72C184.402 42.72 182.302 42.14 180.502 40.98C178.702 39.8 177.302 38.23 176.302 36.27C175.302 34.29 174.802 32.1 174.802 29.7C174.802 27.3 175.302 25.12 176.302 23.16C177.302 21.18 178.702 19.6 180.502 18.42C182.302 17.24 184.402 16.65 186.802 16.65C188.342 16.65 189.692 16.9 190.852 17.4C192.012 17.88 192.952 18.46 193.672 19.14C194.392 19.8 194.892 20.41 195.172 20.97V17.37H204.232V42H195.262ZM183.742 29.7C183.742 30.82 184.002 31.83 184.522 32.73C185.042 33.61 185.732 34.3 186.592 34.8C187.472 35.3 188.442 35.55 189.502 35.55C190.602 35.55 191.572 35.3 192.412 34.8C193.252 34.3 193.912 33.61 194.392 32.73C194.892 31.83 195.142 30.82 195.142 29.7C195.142 28.58 194.892 27.58 194.392 26.7C193.912 25.8 193.252 25.1 192.412 24.6C191.572 24.08 190.602 23.82 189.502 23.82C188.442 23.82 187.472 24.08 186.592 24.6C185.732 25.1 185.042 25.8 184.522 26.7C184.002 27.58 183.742 28.58 183.742 29.7ZM206.719 42V17.37H215.839V42H206.719ZM211.399 12.3C209.959 12.3 208.739 11.8 207.739 10.8C206.739 9.78 206.239 8.57 206.239 7.17C206.239 5.77 206.739 4.56 207.739 3.54C208.759 2.5 209.979 1.98 211.399 1.98C212.339 1.98 213.199 2.22 213.979 2.7C214.759 3.16 215.389 3.78 215.869 4.56C216.349 5.34 216.589 6.21 216.589 7.17C216.589 8.57 216.079 9.78 215.059 10.8C214.039 11.8 212.819 12.3 211.399 12.3Z" fill="black"/>
<path d="M167.649 42.72C166.169 42.72 164.889 42.19 163.809 41.13C162.749 40.05 162.219 38.77 162.219 37.29C162.219 35.77 162.749 34.48 163.809 33.42C164.889 32.34 166.169 31.8 167.649 31.8C169.169 31.8 170.459 32.34 171.519 33.42C172.579 34.48 173.109 35.77 173.109 37.29C173.109 38.77 172.579 40.05 171.519 41.13C170.459 42.19 169.169 42.72 167.649 42.72Z" fill="#FC5656"/>
</svg>
