<svg width="22" height="20" viewBox="0 0 22 20" fill="none" xmlns="http://www.w3.org/2000/svg">
<path d="M10.9662 0C4.98615 0 0.132812 4.48 0.132812 10C0.132812 15.52 4.98615 20 10.9662 20C16.9462 20 21.7995 15.52 21.7995 10C21.7995 4.48 16.957 0 10.9662 0ZM14.2162 12.23L11.0744 13.9C10.6844 14.11 10.2512 14.21 9.82859 14.21C9.39537 14.21 8.97276 14.11 8.58281 13.9C7.80281 13.48 7.33698 12.74 7.33698 11.9V8.55C7.33698 7.72 7.80281 6.97 8.58281 6.55C9.36287 6.13 10.2944 6.13 11.0853 6.55L14.2269 8.22C15.0069 8.64 15.4728 9.38 15.4728 10.22C15.4728 11.06 15.0069 11.81 14.2162 12.23Z" fill="#FC5656"/>
</svg>
